<?xml version="1.0" encoding="utf-8"?>
<!-- Generator: Adobe Illustrator 22.1.0, SVG Export Plug-In . SVG Version: 6.00 Build 0)  -->
<svg version="1.1" id="Layer_1" xmlns="http://www.w3.org/2000/svg" xmlns:xlink="http://www.w3.org/1999/xlink" x="0px" y="0px"
	 viewBox="0 0 1080 1080" style="enable-background:new 0 0 1080 1080;" xml:space="preserve">
<style type="text/css">
	.st0{fill:#FFFFFF;}
	.st1{fill:#0057E7;}
</style>
<g>
	
		<image style="overflow:visible;opacity:0.5;" width="928" height="928" xlink:href="7BE7C030.png"  transform="matrix(1 0 0 1 114 98)">
	</image>
	<g>
		<circle class="st0" cx="571" cy="555" r="449"/>
	</g>
</g>
<g>
	<g>
		<circle class="st0" cx="570.9" cy="555.4" r="60"/>
	</g>
	<g>
		<g>
			<polygon class="st1" points="337.2,480.5 337.2,416.4 274.3,416.4 274.3,382.1 337.2,382.1 337.2,318 373.8,318 373.8,382.1 
				436.7,382.1 436.7,416.4 373.8,416.4 373.8,480.5 			"/>
		</g>
	</g>
	<g>
		<path class="st1" d="M715,415.1h-62.5c-13.3,0-26-5.3-35.4-14.7l0,0c-11.5-11.5-27.1-18-43.4-18H461.5v32.7v2.6v26.9h-62.9v64.1
			h-32.4v124.6c0,33.5,27.2,60.7,60.7,60.7H715c33.5,0,60.7-27.2,60.7-60.7V475.7C775.7,442.2,748.5,415.1,715,415.1z M570.9,649.9
			c-52.7,0-95.3-42.7-95.3-95.3s42.7-95.3,95.3-95.3c52.7,0,95.3,42.7,95.3,95.3S623.6,649.9,570.9,649.9z"/>
	</g>
</g>
</svg>
